<svg width="21" height="20" viewBox="0 0 21 20" fill="none" xmlns="http://www.w3.org/2000/svg">
<path d="M4.06 6.94L2 6L4.06 5.06L5 3L5.94 5.06L8 6L5.94 6.94L5 9L4.06 6.94V6.94ZM5 19L5.94 16.94L8 16L5.94 15.06L5 13L4.06 15.06L2 16L4.06 16.94L5 19ZM1.37 10.37L0 11L1.37 11.63L2 13L2.63 11.63L4 11L2.63 10.37L2 9L1.37 10.37V10.37ZM9 10C9 6.91 10.38 4.06 12.44 2H9V0H16V7H14V3.28C12.2 5.02 11 7.48 11 10C11 13.32 13.1 16.36 16 17.82V20C11.91 18.41 9 14.35 9 10ZM21 12H19V10H17V12H15V14H17V16H19V14H21V12Z" fill="black"/>
</svg>
