<svg width="15" height="15" viewBox="0 0 15 15" fill="none" xmlns="http://www.w3.org/2000/svg">
<path d="M2.5 3V6M2.5 8V11M2.5 13.5V15M12.5 13.5V15M9.5 9.5C8.96957 9.5 8.46086 9.28929 8.08579 8.91421C7.71071 8.53914 7.5 8.03043 7.5 7.5C7.5 6.96957 7.71071 6.46086 8.08579 6.08579C8.46086 5.71071 8.96957 5.5 9.5 5.5C10.0304 5.5 10.5391 5.71071 10.9142 6.08579C11.2893 6.46086 11.5 6.96957 11.5 7.5C11.5 8.03043 11.2893 8.53914 10.9142 8.91421C10.5391 9.28929 10.0304 9.5 9.5 9.5ZM1.5 0.5H13.5C13.7652 0.5 14.0196 0.605357 14.2071 0.792893C14.3946 0.98043 14.5 1.23478 14.5 1.5V12.5C14.5 12.7652 14.3946 13.0196 14.2071 13.2071C14.0196 13.3946 13.7652 13.5 13.5 13.5H1.5C1.23478 13.5 0.98043 13.3946 0.792893 13.2071C0.605357 13.0196 0.5 12.7652 0.5 12.5V1.5C0.5 1.23478 0.605357 0.98043 0.792893 0.792893C0.98043 0.605357 1.23478 0.5 1.5 0.5V0.5Z" stroke="black"/>
</svg>
