<svg width="18" height="20" viewBox="0 0 18 20" fill="none" xmlns="http://www.w3.org/2000/svg">
<path d="M8.298 0.195179C8.69262 0.0475309 9.12379 0.0282824 9.53 0.140179L9.702 0.195179L16.702 2.82018C17.0569 2.95327 17.3667 3.18448 17.5953 3.48688C17.8239 3.78928 17.9618 4.1504 17.993 4.52818L18 4.69318V10.0562C18 11.6766 17.5624 13.267 16.7336 14.6594C15.9048 16.0518 14.7154 17.1946 13.291 17.9672L13.025 18.1062L9.671 19.7832C9.48632 19.8754 9.28461 19.9285 9.07847 19.9392C8.87233 19.9498 8.66621 19.9178 8.473 19.8452L8.329 19.7832L4.975 18.1062C3.52561 17.3815 2.29878 16.2789 1.424 14.9148C0.549233 13.5507 0.0589805 11.9758 0.00500011 10.3562L0 10.0562V4.69318C5.81505e-06 4.31431 0.107627 3.94323 0.310334 3.62315C0.513041 3.30307 0.802495 3.04715 1.145 2.88518L1.298 2.82018L8.298 0.195179V0.195179ZM9 2.06818L2 4.69318V10.0562C2.00003 11.3112 2.33745 12.5431 2.97696 13.623C3.61646 14.7028 4.53451 15.5909 5.635 16.1942L5.87 16.3172L9 17.8822L12.13 16.3172C13.2527 15.7559 14.2039 14.9031 14.8839 13.848C15.5638 12.793 15.9476 11.5745 15.995 10.3202L16 10.0562V4.69318L9 2.06818V2.06818ZM8.143 6.15218C8.27417 5.93317 8.48414 5.77262 8.72987 5.70343C8.9756 5.63424 9.23849 5.66165 9.46466 5.78004C9.69083 5.89844 9.86316 6.09884 9.94633 6.3402C10.0295 6.58156 10.0172 6.84559 9.912 7.07818L9.857 7.18118L8.767 9.00118H10.982C11.728 9.00118 12.203 9.77318 11.902 10.4282L11.848 10.5302L9.858 13.8482C9.72798 14.0695 9.5178 14.2324 9.27099 14.3031C9.02419 14.3738 8.75966 14.3468 8.53218 14.2278C8.3047 14.1088 8.13171 13.9068 8.04903 13.6638C7.96634 13.4208 7.98029 13.1552 8.088 12.9222L8.143 12.8192L9.232 11.0002H7.017C6.84808 11.0002 6.68186 10.9578 6.53354 10.877C6.38523 10.7962 6.25955 10.6794 6.16802 10.5375C6.07649 10.3955 6.02203 10.2328 6.00963 10.0644C5.99722 9.89591 6.02726 9.72703 6.097 9.57318L6.151 9.47018L8.141 6.15218H8.143Z" fill="black"/>
</svg>
