<svg width="18" height="18" viewBox="0 0 18 18" fill="none" xmlns="http://www.w3.org/2000/svg">
<path d="M6.61229 16.3111V13.763C6.61229 13.1126 7.14346 12.5853 7.79868 12.5853H10.1938C10.5085 12.5853 10.8102 12.7093 11.0327 12.9302C11.2552 13.1511 11.3802 13.4507 11.3802 13.763V16.3111C11.3782 16.5815 11.485 16.8416 11.677 17.0335C11.8689 17.2254 12.13 17.3333 12.4024 17.3333H14.0365C14.7997 17.3353 15.5323 17.0357 16.0726 16.5007C16.613 15.9656 16.9166 15.2392 16.9166 14.4815V7.22239C16.9166 6.61039 16.6434 6.02987 16.1705 5.63723L10.6117 1.2299C9.6447 0.45714 8.25924 0.48209 7.32114 1.28915L1.88916 5.63723C1.39393 6.0183 1.09794 6.60054 1.08331 7.22239V14.4741C1.08331 16.0532 2.3728 17.3333 3.96346 17.3333H5.56022C6.126 17.3333 6.58581 16.8802 6.58991 16.3185L6.61229 16.3111Z" stroke="white"/>
</svg>
