<svg width="20" height="16" viewBox="0 0 20 16" fill="none" xmlns="http://www.w3.org/2000/svg">
<path opacity="0.6" fill-rule="evenodd" clip-rule="evenodd" d="M19 1H1V12H19V1ZM1 0C0.447715 0 0 0.447715 0 1V12C0 12.5523 0.447716 13 1 13H19C19.5523 13 20 12.5523 20 12V1C20 0.447715 19.5523 0 19 0H1Z" fill="white"/>
<path opacity="0.6" fill-rule="evenodd" clip-rule="evenodd" d="M0.5 15C0.5 14.7239 0.723858 14.5 1 14.5H19C19.2761 14.5 19.5 14.7239 19.5 15C19.5 15.2761 19.2761 15.5 19 15.5H1C0.723858 15.5 0.5 15.2761 0.5 15Z" fill="white"/>
</svg>
