<svg width="18" height="19" viewBox="0 0 18 19" fill="none" xmlns="http://www.w3.org/2000/svg">
<path fill-rule="evenodd" clip-rule="evenodd" d="M3.66667 14.6667L3 14.6667L3 18H3.66667V14.6667ZM3 13.6667C2.44772 13.6667 2 14.1144 2 14.6667V19H4.66667V14.6667C4.66667 14.1144 4.21895 13.6667 3.66667 13.6667H3Z" fill="white"/>
<path fill-rule="evenodd" clip-rule="evenodd" d="M8.11112 12.8889H7.44446L7.44446 18H8.11112V12.8889ZM7.44446 11.8889C6.89217 11.8889 6.44446 12.3366 6.44446 12.8889V19H9.11112V12.8889C9.11112 12.3366 8.66341 11.8889 8.11112 11.8889H7.44446Z" fill="white"/>
<path fill-rule="evenodd" clip-rule="evenodd" d="M12.5556 10.2222H11.8889L11.8889 18H12.5556V10.2222ZM11.8889 9.22222C11.3366 9.22222 10.8889 9.66994 10.8889 10.2222V19H13.5556V10.2222C13.5556 9.66994 13.1079 9.22222 12.5556 9.22222H11.8889Z" fill="white"/>
<path fill-rule="evenodd" clip-rule="evenodd" d="M17 8.44444H16.3333L16.3333 18H17V8.44444ZM16.3333 7.44444C15.781 7.44444 15.3333 7.89216 15.3333 8.44444V19H18V8.44444C18 7.89216 17.5523 7.44444 17 7.44444H16.3333Z" fill="white"/>
<path fill-rule="evenodd" clip-rule="evenodd" d="M7.7846 2.8288L13.5556 3L10.5218 7.9122L9.39026 5.81074L2.23706 9.66246C1.99392 9.79338 1.69069 9.70241 1.55977 9.45927C1.42885 9.21614 1.51982 8.91291 1.76296 8.78199L8.91616 4.93026L7.7846 2.8288Z" fill="white"/>
</svg>
