<svg width="20" height="21" viewBox="0 0 20 21" fill="none" xmlns="http://www.w3.org/2000/svg">
<path fill-rule="evenodd" clip-rule="evenodd" d="M19 9H1V20H19V9ZM1 8C0.447715 8 0 8.44772 0 9V20C0 20.5523 0.447716 21 1 21H19C19.5523 21 20 20.5523 20 20V9C20 8.44772 19.5523 8 19 8H1Z" fill="white"/>
<path d="M13 14C13 15.6569 11.6569 17 10 17C8.34315 17 7 15.6569 7 14C7 12.3431 8.34315 11 10 11C11.6569 11 13 12.3431 13 14Z" fill="white"/>
<path d="M17 14C17 14.5523 16.5523 15 16 15C15.4477 15 15 14.5523 15 14C15 13.4477 15.4477 13 16 13C16.5523 13 17 13.4477 17 14Z" fill="white"/>
<path d="M5 14C5 14.5523 4.55228 15 4 15C3.44772 15 3 14.5523 3 14C3 13.4477 3.44772 13 4 13C4.55228 13 5 13.4477 5 14Z" fill="white"/>
<path d="M3 9.5C3 10.3284 2.32843 11 1.5 11C0.671573 11 0 10.3284 0 9.5C0 8.67157 0.671573 8 1.5 8C2.32843 8 3 8.67157 3 9.5Z" fill="white"/>
<path d="M3 19.5C3 20.3284 2.32843 21 1.5 21C0.671573 21 0 20.3284 0 19.5C0 18.6716 0.671573 18 1.5 18C2.32843 18 3 18.6716 3 19.5Z" fill="white"/>
<path d="M20 19.5C20 20.3284 19.3284 21 18.5 21C17.6716 21 17 20.3284 17 19.5C17 18.6716 17.6716 18 18.5 18C19.3284 18 20 18.6716 20 19.5Z" fill="white"/>
<path d="M20 9.5C20 10.3284 19.3284 11 18.5 11C17.6716 11 17 10.3284 17 9.5C17 8.67157 17.6716 8 18.5 8C19.3284 8 20 8.67157 20 9.5Z" fill="white"/>
<path fill-rule="evenodd" clip-rule="evenodd" d="M7.11322 5L9.99997 0L12.8867 5L10.5 5V7C10.5 7.27614 10.2761 7.5 9.99997 7.5C9.72383 7.5 9.49997 7.27614 9.49997 7V5H7.11322Z" fill="white"/>
</svg>
