<svg width="21" height="20" viewBox="0 0 21 20" fill="none" xmlns="http://www.w3.org/2000/svg">
<path d="M10.5263 5.61946V10.7554L6.3158 13.8369" stroke="white" stroke-linecap="round"/>
<path d="M14.81 2.27737L16.4287 7.81933L20.4189 3.64654L14.81 2.27737ZM18.9852 7.31163L18.5122 7.47363L18.9852 7.31163ZM18.7507 13.7839L18.2905 13.5883L18.7507 13.7839ZM14.2215 18.5179L14.44 18.9676H14.44L14.2215 18.5179ZM2.18738 15.4707L2.59644 15.1832L2.18738 15.4707ZM0.588414 9.18514L1.08497 9.24368L0.588414 9.18514ZM3.60842 3.41813L3.27561 3.04499L3.60842 3.41813ZM9.77735 1.49985C10.0534 1.49318 10.2718 1.26397 10.2651 0.98791C10.2584 0.711848 10.0292 0.493469 9.75317 0.500146L9.77735 1.49985ZM17.64 5.65477C17.999 6.22261 18.2926 6.83233 18.5122 7.47363L19.4583 7.14963C19.2131 6.43368 18.8855 5.75342 18.4852 5.12034L17.64 5.65477ZM18.5122 7.47363C19.1963 9.47123 19.1177 11.6425 18.2905 13.5883L19.2108 13.9795C20.1344 11.8069 20.2224 9.38095 19.4583 7.14963L18.5122 7.47363ZM18.2905 13.5883C17.4632 15.5345 15.9417 17.1265 14.0031 18.0681L14.44 18.9676C16.592 17.9224 18.2874 16.1519 19.2108 13.9795L18.2905 13.5883ZM14.0031 18.0681C12.0642 19.0098 9.84083 19.2365 7.74331 18.7054L7.49785 19.6748C9.82314 20.2636 12.2883 20.0127 14.44 18.9676L14.0031 18.0681ZM7.74331 18.7054C5.64593 18.1743 3.81876 16.9223 2.59644 15.1832L1.77831 15.7582C3.14047 17.6962 5.17241 19.086 7.49785 19.6748L7.74331 18.7054ZM2.59644 15.1832C1.37435 13.4445 0.83837 11.3353 1.08497 9.24368L0.0918535 9.12659C-0.183808 11.4646 0.415924 13.8199 1.77831 15.7582L2.59644 15.1832ZM1.08497 9.24368C1.33159 7.152 2.34475 5.21523 3.94124 3.79127L3.27561 3.04499C1.49941 4.62924 0.367502 6.78869 0.0918535 9.12659L1.08497 9.24368ZM3.94124 3.79127C5.53802 2.36705 7.61053 1.55226 9.77735 1.49985L9.75317 0.500146C7.35211 0.558221 5.05152 1.461 3.27561 3.04499L3.94124 3.79127Z" fill="white"/>
<ellipse cx="1.05263" cy="9.72819" rx="1.05263" ry="1.02718" fill="white"/>
<ellipse cx="9.47371" cy="18.9728" rx="1.05263" ry="1.02718" fill="white"/>
<ellipse cx="18.9473" cy="9.72819" rx="1.05263" ry="1.02718" fill="white"/>
</svg>
