<svg width="19" height="19" viewBox="0 0 19 19" fill="none" xmlns="http://www.w3.org/2000/svg">
<mask id="path-1-inside-1_8_143" fill="white">
<path d="M19 9.5C19 11.3789 18.4428 13.2157 17.399 14.7779C16.3551 16.3402 14.8714 17.5578 13.1355 18.2769C11.3996 18.9959 9.48946 19.184 7.64664 18.8175C5.80382 18.4509 4.11108 17.5461 2.78249 16.2175C1.45389 14.8889 0.549099 13.1962 0.18254 11.3534C-0.18402 9.51054 0.00411194 7.60041 0.723144 5.86451C1.44218 4.12861 2.65982 2.64491 4.22208 1.60104C5.78435 0.557165 7.62108 -2.24059e-08 9.5 0V9.5H19Z"/>
</mask>
<path d="M19 9.5C19 11.3789 18.4428 13.2157 17.399 14.7779C16.3551 16.3402 14.8714 17.5578 13.1355 18.2769C11.3996 18.9959 9.48946 19.184 7.64664 18.8175C5.80382 18.4509 4.11108 17.5461 2.78249 16.2175C1.45389 14.8889 0.549099 13.1962 0.18254 11.3534C-0.18402 9.51054 0.00411194 7.60041 0.723144 5.86451C1.44218 4.12861 2.65982 2.64491 4.22208 1.60104C5.78435 0.557165 7.62108 -2.24059e-08 9.5 0V9.5H19Z" stroke="white" stroke-width="2" mask="url(#path-1-inside-1_8_143)"/>
<mask id="path-2-inside-2_8_143" fill="white">
<path d="M11 0C12.0506 1.2528e-08 13.0909 0.206926 14.0615 0.608964C15.0321 1.011 15.914 1.60028 16.6569 2.34315C17.3997 3.08602 17.989 3.96793 18.391 4.93853C18.7931 5.90914 19 6.94943 19 8L11 8V0Z"/>
</mask>
<path d="M11 0C12.0506 1.2528e-08 13.0909 0.206926 14.0615 0.608964C15.0321 1.011 15.914 1.60028 16.6569 2.34315C17.3997 3.08602 17.989 3.96793 18.391 4.93853C18.7931 5.90914 19 6.94943 19 8L11 8V0Z" stroke="white" stroke-width="2" mask="url(#path-2-inside-2_8_143)"/>
</svg>
