<svg width="16" height="19" viewBox="0 0 16 19" fill="none" xmlns="http://www.w3.org/2000/svg">
<path d="M8 10.4956C10.834 10.4956 13.1322 8.28368 13.1322 5.49739H12.1322C12.1322 7.70406 10.3094 9.49564 8 9.49564V10.4956ZM2.86777 5.49739C2.86777 8.28375 5.16696 10.4956 8 10.4956V9.49564C5.69137 9.49564 3.86777 7.70399 3.86777 5.49739H2.86777ZM8 0.5C5.16708 0.5 2.86777 2.71092 2.86777 5.49739H3.86777C3.86777 3.29092 5.69125 1.5 8 1.5V0.5ZM13.1322 5.49739C13.1322 2.71098 10.8339 0.5 8 0.5V1.5C10.3096 1.5 12.1322 3.29086 12.1322 5.49739H13.1322ZM0.5 15.0887C0.5 15.7959 0.750173 16.3892 1.19633 16.8621C1.63129 17.3232 2.23252 17.6497 2.91406 17.8842C4.27153 18.3512 6.09062 18.5 8 18.5V17.5C6.11396 17.5 4.43305 17.3492 3.23937 16.9386C2.64534 16.7342 2.20821 16.4774 1.92371 16.1759C1.6504 15.8862 1.5 15.5375 1.5 15.0887H0.5ZM8 11.6978C6.10155 11.6978 4.283 11.8413 2.92363 12.3025C2.2412 12.534 1.6378 12.8575 1.20075 13.3165C0.752182 13.7876 0.5 14.3803 0.5 15.0887H1.5C1.5 14.6407 1.65091 14.2939 1.92495 14.0061C2.21051 13.7062 2.64924 13.4515 3.24491 13.2494C4.44171 12.8434 6.12315 12.6978 8 12.6978V11.6978ZM15.5 15.1091C15.5 14.402 15.2499 13.8087 14.8038 13.3358C14.3689 12.8747 13.7678 12.5481 13.0863 12.3137C11.7289 11.8467 9.90981 11.6978 8 11.6978V12.6978C9.88649 12.6978 11.5674 12.8486 12.7609 13.2593C13.3549 13.4636 13.7919 13.7204 14.0764 14.0219C14.3496 14.3116 14.5 14.6603 14.5 15.1091H15.5ZM8 18.5C9.89845 18.5 11.717 18.3566 13.0764 17.8954C13.7588 17.6639 14.3622 17.3403 14.7992 16.8814C15.2478 16.4103 15.5 15.8175 15.5 15.1091H14.5C14.5 15.5571 14.3491 15.904 14.0751 16.1918C13.7895 16.4917 13.3508 16.7463 12.7551 16.9484C11.5583 17.3544 9.87685 17.5 8 17.5V18.5Z" fill="white"/>
</svg>
