<svg width="19" height="19" viewBox="0 0 19 19" fill="none" xmlns="http://www.w3.org/2000/svg">
<path d="M13.577 5.08C13.577 5.35614 13.8009 5.58 14.077 5.58C14.3532 5.58 14.577 5.35614 14.577 5.08H13.577ZM14.577 13.75C14.577 13.4739 14.3532 13.25 14.077 13.25C13.8009 13.25 13.577 13.4739 13.577 13.75H14.577ZM7.53837 9.16999C7.26223 9.16999 7.03837 9.39385 7.03837 9.66999C7.03837 9.94614 7.26223 10.17 7.53837 10.17V9.16999ZM18 9.66999L18.349 10.028C18.4456 9.93389 18.5 9.8048 18.5 9.66999C18.5 9.53519 18.4456 9.4061 18.349 9.31199L18 9.66999ZM15.7336 6.76199C15.5359 6.56922 15.2194 6.57323 15.0266 6.77095C14.8338 6.96867 14.8378 7.28522 15.0355 7.478L15.7336 6.76199ZM15.0355 11.862C14.8378 12.0548 14.8338 12.3713 15.0266 12.569C15.2194 12.7668 15.5359 12.7708 15.7336 12.578L15.0355 11.862ZM10.5833 0.5H4.49447V1.5H10.5833V0.5ZM4.49447 0.5C3.26851 0.5 2.2458 0.924911 1.53821 1.75656C0.840175 2.57697 0.5 3.73278 0.5 5.1055H1.5C1.5 3.88572 1.80278 2.98878 2.29984 2.40457C2.78735 1.83159 3.51188 1.5 4.49447 1.5V0.5ZM0.5 5.1055V13.886H1.5V5.1055H0.5ZM0.5 13.886C0.5 15.2782 0.839335 16.4375 1.53894 17.256C2.24825 18.0859 3.27193 18.5 4.49447 18.5V17.5C3.50846 17.5 2.7849 17.1746 2.29911 16.6063C1.80362 16.0265 1.5 15.1288 1.5 13.886H0.5ZM4.49447 18.5H10.5833V17.5H4.49447V18.5ZM10.5833 18.5C11.8217 18.5 12.847 18.087 13.5531 17.2545C14.2483 16.4347 14.577 15.2749 14.577 13.886H13.577C13.577 15.1321 13.2809 16.0293 12.7904 16.6077C12.3106 17.1735 11.589 17.5 10.5833 17.5V18.5ZM14.577 5.08C14.577 3.71059 14.2475 2.55952 13.5523 1.74355C12.8469 0.91551 11.8224 0.5 10.5833 0.5V1.5C11.5883 1.5 12.3108 1.82824 12.7911 2.39207C13.2818 2.96798 13.577 3.85691 13.577 5.08H14.577ZM14.577 13.886V13.75H13.577V13.886H14.577ZM7.53837 10.17H18V9.16999H7.53837V10.17ZM18.349 9.31199L15.7336 6.76199L15.0355 7.478L17.651 10.028L18.349 9.31199ZM17.651 9.31199L15.0355 11.862L15.7336 12.578L18.349 10.028L17.651 9.31199Z" fill="white"/>
</svg>
