<svg width="22" height="22" viewBox="0 0 22 22" fill="none" xmlns="http://www.w3.org/2000/svg">
<path fill-rule="evenodd" clip-rule="evenodd" d="M0 11C0 4.92472 4.92472 0 11 0C17.0753 0 22 4.92472 22 11C22 17.0753 17.0753 22 11 22C4.92472 22 0 17.0753 0 11ZM11 2C6.02928 2 2 6.02928 2 11C2 15.9707 6.02928 20 11 20C15.9707 20 20 15.9707 20 11C20 6.02928 15.9707 2 11 2Z" fill="black"/>
<path fill-rule="evenodd" clip-rule="evenodd" d="M9 4C9.55228 4 10 4.44772 10 5V6H11V5C11 4.44772 11.4477 4 12 4C12.5523 4 13 4.44772 13 5V6C13.4935 6 14.2113 6.13976 14.8345 6.58849C15.5086 7.07394 16 7.87418 16 9C16 9.85125 15.7191 10.5164 15.2906 11C15.7191 11.4836 16 12.1487 16 13C16 14.1258 15.5086 14.9261 14.8345 15.4115C14.2113 15.8602 13.4935 16 13 16V17C13 17.5523 12.5523 18 12 18C11.4477 18 11 17.5523 11 17V16H10V17C10 17.5523 9.55228 18 9 18C8.44772 18 8 17.5523 8 17V16H7C6.44772 16 6 15.5523 6 15C6 14.4477 6.44772 14 7 14H8V8H7C6.44772 8 6 7.55228 6 7C6 6.44772 6.44772 6 7 6H8V5C8 4.44772 8.44772 4 9 4ZM10 8V10H13C13.1735 10 13.4557 9.93976 13.6658 9.78849C13.8249 9.67394 14 9.47418 14 9C14 8.52582 13.8249 8.32606 13.6658 8.21151C13.4557 8.06024 13.1735 8 13 8H10ZM13 12H10V14H13C13.1735 14 13.4557 13.9398 13.6658 13.7885C13.8249 13.6739 14 13.4742 14 13C14 12.5258 13.8249 12.3261 13.6658 12.2115C13.4557 12.0602 13.1735 12 13 12Z" fill="black"/>
</svg>
