<svg width="8" height="14" viewBox="0 0 8 14" fill="none" xmlns="http://www.w3.org/2000/svg">
<path d="M7.9981 9.00566C7.9981 6.91832 6.40578 6.31982 4.68322 5.98294L3.77021 5.81209C2.4201 5.56687 2.31592 5.20505 2.31592 4.72073C2.31592 4.09226 2.92894 3.71666 3.95584 3.71666C5.17193 3.71666 5.48353 4.28104 5.61281 4.70499L5.62512 4.7402C5.77808 5.1099 6.13348 5.3304 6.57697 5.3304C6.6918 5.3304 6.79504 5.31421 6.87223 5.29977C7.34815 5.21227 7.67964 4.86227 7.67964 4.44773C7.67964 4.34492 7.65951 4.24298 7.61902 4.14388C7.37514 3.41938 6.68991 2.27902 4.79119 2.0187V0.776189C4.79119 -0.25873 3.03667 -0.25873 3.03667 0.776189V2.02614C0.99707 2.32102 0.246012 3.60291 0.246012 4.7203C0.246012 6.75338 1.77844 7.32017 3.27534 7.60543L4.26294 7.79924C5.6694 8.06349 5.9173 8.40234 5.9173 9.01616C5.9173 9.76626 5.23089 10.2134 4.08015 10.2134C2.58632 10.2134 2.28182 9.59192 2.0782 8.89431C1.9591 8.50822 1.58144 8.25949 1.1157 8.25949C1.01412 8.25949 0.932666 8.27196 0.834404 8.2875L0.804807 8.29275C0.323201 8.3984 0 8.74884 0 9.16426C0 9.24323 0.0151538 9.31038 0.0274662 9.36463L0.04262 9.42676C0.259271 10.1034 0.737562 11.581 3.12309 11.9107V13.2112C3.12309 13.729 3.56397 14 4.00012 14C4.43626 14 4.87762 13.729 4.87762 13.2112V11.9334C6.77183 11.7055 8 10.5875 8 9.00588" fill="#405866"/>
</svg>
