<svg width="22" height="22" viewBox="0 0 22 22" fill="none" xmlns="http://www.w3.org/2000/svg">
<path fill-rule="evenodd" clip-rule="evenodd" d="M22 3C22 1.34315 20.6569 0 19 0H9C7.34315 0 6 1.34315 6 3V5C6 5.55228 6.44771 6 7 6C7.55229 6 8 5.55228 8 5V3C8 2.44772 8.44771 2 9 2H19C19.5523 2 20 2.44772 20 3V19C20 19.5523 19.5523 20 19 20H9C8.44772 20 8 19.5523 8 19V17C8 16.4477 7.55229 16 7 16C6.44771 16 6 16.4477 6 17V19C6 20.6569 7.34315 22 9 22H19C20.6569 22 22 20.6569 22 19V3ZM11.2929 7.29289C10.9024 7.68342 10.9024 8.31658 11.2929 8.70711L12.5858 10H1C0.447716 10 0 10.4477 0 11C0 11.5523 0.447716 12 1 12H12.5858L11.2929 13.2929C10.9024 13.6834 10.9024 14.3166 11.2929 14.7071C11.6834 15.0976 12.3166 15.0976 12.7071 14.7071L15.6364 11.7778C15.6486 11.7656 15.6604 11.7533 15.6719 11.7407C15.8734 11.5577 16 11.2936 16 11C16 10.7064 15.8734 10.4423 15.6719 10.2593C15.6604 10.2467 15.6486 10.2344 15.6364 10.2222L12.7071 7.29289C12.3166 6.90237 11.6834 6.90237 11.2929 7.29289Z" fill="#333333"/>
</svg>
