<svg width="42" height="56" viewBox="0 0 42 56" fill="none" xmlns="http://www.w3.org/2000/svg">
<path d="M22.3125 0.710938C11.0906 0.710938 0 8.19219 0 20.3C0 28 4.33125 32.375 6.95625 32.375C8.03906 32.375 8.6625 29.3563 8.6625 28.5031C8.6625 27.4859 6.07031 25.3203 6.07031 21.0875C6.07031 12.2937 12.7641 6.05938 21.4266 6.05938C28.875 6.05938 34.3875 10.2922 34.3875 18.0688C34.3875 23.8766 32.0578 34.7703 24.5109 34.7703C21.7875 34.7703 19.4578 32.8016 19.4578 29.9797C19.4578 25.8453 22.3453 21.8422 22.3453 17.5766C22.3453 10.3359 12.075 11.6484 12.075 20.3984C12.075 22.2359 12.3047 24.2703 13.125 25.9438C11.6156 32.4406 8.53125 42.1203 8.53125 48.8141C8.53125 50.8812 8.82656 52.9156 9.02344 54.9828C9.39531 55.3984 9.20937 55.3547 9.77812 55.1469C15.2906 47.6 15.0937 46.1234 17.5875 36.2469C18.9328 38.8063 22.4109 40.1844 25.1672 40.1844C36.7828 40.1844 42 28.8641 42 18.6594C42 7.79844 32.6156 0.710938 22.3125 0.710938Z" fill="black"/>
</svg>
