<svg width="22" height="22" viewBox="0 0 22 22" fill="none" xmlns="http://www.w3.org/2000/svg">
<path fill-rule="evenodd" clip-rule="evenodd" d="M6.99978 6C6.99978 3.79086 8.79064 2 10.9998 2C13.2089 2 14.9998 3.79086 14.9998 6C14.9998 8.20914 13.2089 10 10.9998 10C8.79064 10 6.99978 8.20914 6.99978 6ZM10.9998 0C7.68607 0 4.99978 2.68629 4.99978 6C4.99978 7.88489 5.86893 9.56678 7.22832 10.6667C7.08124 10.7204 6.93519 10.7773 6.79026 10.8373C5.45568 11.3901 4.24305 12.2004 3.2216 13.2218C2.20016 14.2433 1.38991 15.4559 0.837105 16.7905C0.432081 17.7683 0.137729 18.8119 0.0140731 19.8881C-0.12592 21.1063 0.878955 22 1.94955 22H20.0503C21.1209 22 22.1259 21.1063 21.9857 19.888C21.862 18.8118 21.5674 17.7682 21.1625 16.7905C20.6097 15.4559 19.7994 14.2433 18.778 13.2218C17.7565 12.2004 16.5439 11.3901 15.2093 10.8373C15.0644 10.7773 14.9183 10.7204 14.7712 10.6667C16.1306 9.56678 16.9998 7.88489 16.9998 6C16.9998 2.68629 14.3135 0 10.9998 0ZM7.55563 12.6851C8.64756 12.2328 9.81788 12 10.9998 12C12.1817 12 13.352 12.2328 14.4439 12.6851C15.5359 13.1374 16.528 13.8003 17.3637 14.636C18.1995 15.4718 18.8624 16.4639 19.3147 17.5558C19.6439 18.3505 19.8775 19.1734 19.9846 20H2.01522C2.12219 19.1733 2.35574 18.3504 2.68486 17.5559C3.13716 16.4639 3.80009 15.4718 4.63582 14.636C5.47155 13.8003 6.4637 13.1374 7.55563 12.6851Z" fill="#333333"/>
</svg>
