<svg width="896" height="896" viewBox="0 0 896 896" fill="none" xmlns="http://www.w3.org/2000/svg">
<path d="M704 768C704 801.948 690.514 834.505 666.51 858.51C642.505 882.514 609.948 896 576 896H128C94.0523 896 61.495 882.514 37.4903 858.51C13.4857 834.505 0 801.948 0 768V320C0 286.052 13.4857 253.495 37.4903 229.49C61.495 205.486 94.0523 192 128 192V256C111.026 256 94.7475 262.743 82.7452 274.745C70.7428 286.748 64 303.026 64 320V768C64 784.974 70.7428 801.252 82.7452 813.255C94.7475 825.257 111.026 832 128 832H576C592.974 832 609.252 825.257 621.255 813.255C633.257 801.252 640 784.974 640 768H704Z" fill="white"/>
<path d="M320 64C303.026 64 286.748 70.7428 274.745 82.7452C262.743 94.7475 256 111.026 256 128V576C256 592.974 262.743 609.252 274.745 621.255C286.748 633.257 303.026 640 320 640H768C784.974 640 801.252 633.257 813.255 621.255C825.257 609.252 832 592.974 832 576V128C832 111.026 825.257 94.7475 813.255 82.7452C801.252 70.7428 784.974 64 768 64H320ZM320 0H768C801.948 0 834.505 13.4857 858.51 37.4903C882.514 61.495 896 94.0523 896 128V576C896 609.948 882.514 642.505 858.51 666.51C834.505 690.514 801.948 704 768 704H320C286.052 704 253.495 690.514 229.49 666.51C205.486 642.505 192 609.948 192 576V128C192 94.0523 205.486 61.495 229.49 37.4903C253.495 13.4857 286.052 0 320 0Z" fill="white"/>
</svg>
